<?xml version="1.0" encoding="UTF-8"?>
<svg width="11px" height="11px" viewBox="0 0 15 15" version="1.1"
    xmlns="http://www.w3.org/2000/svg"
    xmlns:xlink="http://www.w3.org/1999/xlink">
    <title>Icons/Icon Arrow Down (Old)</title>
    <defs>
        <path d="M19.0892739,5.62741617 C19.0790554,5.60084806 19.0565747,5.58245475 19.0432906,5.55793034 C18.9962855,5.4659638 18.9482585,5.37399726 18.8716197,5.29838033 C18.794981,5.2207197 18.7019926,5.17167087 18.610026,5.12466575 C18.5855016,5.11240355 18.5681302,5.09094469 18.5425839,5.08072618 C18.4168963,5.02758996 18.2830339,5 18.1481496,5 L8.52538402,5 C7.96336628,5 7.50353358,5.4598327 7.50353358,6.02185044 C7.50353358,6.58386818 7.96336628,7.04370088 8.52538402,7.04370088 L15.6814027,7.04370088 L5.29735848,17.4267232 C4.90088051,17.824223 4.90088051,18.4751418 5.29735848,18.8716197 C5.6948583,19.2691196 6.34577703,19.2691196 6.74327685,18.8716197 L17.1262992,8.48859741 L17.1262992,15.6446161 C17.1262992,16.2066338 17.5861319,16.6664665 18.1481496,16.6664665 C18.7101674,16.6664665 19.1700001,16.2066338 19.1700001,15.6446161 L19.1700001,6.02185044 C19.1700001,6.02185044 19.1700001,6.02185044 19.1700001,6.02082859 C19.1700001,5.88696618 19.1413883,5.75310378 19.0892739,5.62741617" id="path-1"></path>
    </defs>
    <g id="Modify" stroke="none" stroke-width="1" fill="none" fill-rule="evenodd">
        <g id="Group" transform="translate(-4.000000, -4.000000)">
            <mask id="mask-2" fill="white">
                <use xlink:href="#path-1" transform="translate(12.085000, 12.084872) scale(1, -1) translate(-12.085000, -12.084872) "></use>
            </mask>
            <use id="Imported-Layers" fill="#E93E2E" transform="translate(12.085000, 12.084872) scale(1, -1) translate(-12.085000, -12.084872) " xlink:href="#path-1"></use>
            <g mask="url(#mask-2)" fill="#E93E2E" id="Icon-Color">
                <g>
                    <rect id="Color" x="0" y="0" width="24" height="24"></rect>
                </g>
            </g>
        </g>
    </g>
</svg>
